<?xml version="1.0" encoding="utf-8"?>
<svg version="1.1" xmlns="http://www.w3.org/2000/svg" xmlns:xlink="http://www.w3.org/1999/xlink" width="176" height="32"
     viewBox="0 0 176 32">
    <defs>
        <symbol id="play" viewBox="0 0 7 8">
            <title>play button</title>
            <path d="M0.70036,8.00002c-0.11921,0 -0.23651,-0.02887 -0.33922,-0.08348c-0.22276,-0.11776 -0.36113,-0.34105 -0.36113,-0.5827v-6.6668c0,-0.24217 0.13838,-0.46577 0.36113,-0.58353c0.10357,-0.05462 0.22087,-0.08348 0.33922,-0.08348c0.13208,0 0.26028,0.03493 0.37077,0.10101l5.60017,3.3334c0.20582,0.12367 0.3287,0.33526 0.3287,0.566c0,0.23106 -0.12288,0.44233 -0.3287,0.56517l-5.60017,3.3334c-0.11049,0.06608 -0.2387,0.10101 -0.37077,0.10101z"
                  fill="#ffffff" fill-opacity="1"></path>
        </symbol>
        <symbol id="search" fill="#adb5bd">
            <path d="M 15.57450485229492 16.25 C 15.38467502593994 16.25 15.19738483428955 16.17159080505371 15.06064510345459 16.03488922119141 L 11.3336877822876 12.30875682830811 C 10.07451248168945 13.33285903930664 8.499872207641602 13.89435005187988 6.873684883117676 13.89435005187988 C 2.973244905471802 13.89435005187988 -0.1999951899051666 10.72177982330322 -0.1999951899051666 6.822169780731201 C -0.1999951899051666 2.922559976577759 2.973244905471802 -0.25 6.873684883117676 -0.25 C 10.77413463592529 -0.25 13.94737434387207 2.922559976577759 13.94737434387207 6.822169780731201 C 13.94737434387207 8.448022842407227 13.38582515716553 10.0222635269165 12.36147689819336 11.28117561340332 L 16.08836555480957 15.00722980499268 C 16.22484397888184 15.14367961883545 16.30000495910645 15.3261604309082 16.30000495910645 15.5210599899292 C 16.30000495910645 15.71597003936768 16.22483444213867 15.89844989776611 16.08835411071777 16.03488922119141 C 15.95793437957764 16.17037010192871 15.76943492889404 16.25 15.57450485229492 16.25 Z M 6.870134830474854 1.207870006561279 C 3.773684740066528 1.207870006561279 1.254534840583801 3.72642993927002 1.254534840583801 6.822169780731201 C 1.254534840583801 9.919859886169434 3.773684740066528 12.44001960754395 6.870134830474854 12.44001960754395 C 9.966585159301758 12.44001960754395 12.4857349395752 9.919859886169434 12.4857349395752 6.822169780731201 C 12.4857349395752 3.72642993927002 9.966585159301758 1.207870006561279 6.870134830474854 1.207870006561279 Z"
                  stroke="none"></path>
            <path d="M 15.57450485229492 16 C 15.69515514373779 16 15.81934452056885 15.95388031005859 15.91160488128662 15.8580904006958 C 16.09613418579102 15.67360973358154 16.09613418579102 15.36851978302002 15.91160488128662 15.1840295791626 L 12.02249526977539 11.29578971862793 C 13.06574440002441 10.09667015075684 13.69737434387207 8.532150268554688 13.69737434387207 6.822169780731201 C 13.69737434387207 3.058089971542358 10.63505458831787 0 6.873684883117676 0 C 3.108774900436401 0 0.05000480264425278 3.061640024185181 0.05000480264425278 6.822169780731201 C 0.05000480264425278 10.5826997756958 3.112324714660645 13.64435005187988 6.873684883117676 13.64435005187988 C 8.584044456481934 13.64435005187988 10.1489143371582 13.01286029815674 11.34829521179199 11.96984004974365 L 15.23740482330322 15.8580904006958 C 15.329665184021 15.95032978057861 15.45385456085205 16 15.57450485229492 16 M 6.870134830474854 0.9578700065612793 C 10.1063346862793 0.9578700065612793 12.7357349395752 3.590240001678467 12.7357349395752 6.822169780731201 C 12.7357349395752 10.05410003662109 10.1063346862793 12.69001960754395 6.870134830474854 12.69001960754395 C 3.637494802474976 12.69001960754395 1.004534840583801 10.05764961242676 1.004534840583801 6.822169780731201 C 1.004534840583801 3.586699962615967 3.637494802474976 0.9578700065612793 6.870134830474854 0.9578700065612793 M 15.57450485229492 16.5 C 15.31887435913086 16.5 15.06715488433838 16.39491081237793 14.88388442993164 16.21167945861816 L 11.31397533416748 12.64255142211914 C 10.04130268096924 13.61409473419189 8.481915473937988 14.14435005187988 6.873684883117676 14.14435005187988 C 2.835394859313965 14.14435005187988 -0.4499951899051666 10.85962963104248 -0.4499951899051666 6.822169780731201 C -0.4499951899051666 2.784709930419922 2.835394859313965 -0.5 6.873684883117676 -0.5 C 10.91198444366455 -0.5 14.19737434387207 2.784709930419922 14.19737434387207 6.822169780731201 C 14.19737434387207 8.429991722106934 13.66699123382568 9.989072799682617 12.69533634185791 11.26146030426025 L 16.26511573791504 14.83043956756592 C 16.44882392883301 15.01410961151123 16.55000495910645 15.25938034057617 16.55000495910645 15.5210599899292 C 16.55000495910645 15.78108310699463 16.45010757446289 16.02489280700684 16.26862716674805 16.20815849304199 C 16.08822631835938 16.39368057250977 15.83549880981445 16.5 15.57450485229492 16.5 Z M 6.870134830474854 1.457870006561279 C 3.911534786224365 1.457870006561279 1.504534840583801 3.864279985427856 1.504534840583801 6.822169780731201 C 1.504534840583801 9.782010078430176 3.911534786224365 12.19001960754395 6.870134830474854 12.19001960754395 C 9.828734397888184 12.19001960754395 12.2357349395752 9.782010078430176 12.2357349395752 6.822169780731201 C 12.2357349395752 3.864279985427856 9.828734397888184 1.457870006561279 6.870134830474854 1.457870006561279 Z"
                  stroke="none" fill="#adb5bd"></path>
        </symbol>
        <symbol id="share" viewBox="0 0 14 18">
            <g transform="translate(-47.727 0)">
                <g transform="translate(47.727 0)">
                    <path id="Path_22"
                          d="M61.05,171.954H58.135a.694.694,0,0,0,0,1.387H60.35v8.209H49.1v-8.209h2.444a.694.694,0,0,0,0-1.387H48.4a.714.714,0,0,0-.677.728V182.3a.636.636,0,0,0,.677.636H61.05a.636.636,0,0,0,.677-.636v-9.619A.714.714,0,0,0,61.05,171.954Z"
                          transform="translate(-47.727 -164.937)" fill="#adb5bd"/>
                    <path id="Path_23"
                          d="M117.235,12.219a.693.693,0,0,0,.689-.694v-9.4l2.938,2.636a.693.693,0,0,0,.975-.058.7.7,0,0,0-.057-.983L117.82.172a.689.689,0,0,0-.884-.023.7.7,0,0,0-.3.277l-3.431,3.318a.7.7,0,0,0-.023.983.686.686,0,0,0,.975.023l2.387-2.312v9.087A.693.693,0,0,0,117.235,12.219Z"
                          transform="translate(-110.35 0)" fill="#adb5bd"/>
                </g>
            </g>
        </symbol>
        <symbol id="bookmark" viewBox="0 0 14 18">
            <g id="bookmark-white" transform="translate(-33.261)">
                <path
                        d="M47.048.595a1.255,1.255,0,0,0-.574-.488A1.127,1.127,0,0,0,45.992,0H34.53a1.127,1.127,0,0,0-.481.107,1.254,1.254,0,0,0-.574.488,1.34,1.34,0,0,0-.213.738V16.668a1.341,1.341,0,0,0,.213.738,1.254,1.254,0,0,0,.574.488A1.126,1.126,0,0,0,34.53,18a1.25,1.25,0,0,0,.908-.392l4.824-5.045,4.824,5.045a1.245,1.245,0,0,0,.908.38,1.145,1.145,0,0,0,.481-.095,1.254,1.254,0,0,0,.574-.488,1.339,1.339,0,0,0,.213-.738V1.333A1.341,1.341,0,0,0,47.048.595ZM45.861,16.3l-4.627-4.83-.973-1.011-.973,1.011L34.661,16.3V1.523h11.2V16.3Z"
                        fill="#adb5bd"/>
            </g>
        </symbol>
        <symbol id="arrow-left" viewBox="0 0 18 10">
            <path d="M18,111.926H2.171l3.568-3.614-.8-.812L0,112.5l4.937,5,.8-.812-3.568-3.614H18Z"
                  transform="translate(0 -107.5)"/>
        </symbol>
        <symbol id="fb" viewBox="0 0 7.569 14">
            <g id="facebook-logo" transform="translate(-22.077)">
                <path
                      d="M29.361,0,27.546,0a3.188,3.188,0,0,0-3.358,3.445V5.034H22.362a.285.285,0,0,0-.285.286v2.3a.285.285,0,0,0,.285.285h1.825v5.808a.285.285,0,0,0,.285.285h2.382a.285.285,0,0,0,.285-.285V7.907h2.134a.285.285,0,0,0,.285-.285V5.32a.286.286,0,0,0-.286-.286H27.14V3.687c0-.647.154-.976,1-.976h1.223a.285.285,0,0,0,.285-.285V.288A.286.286,0,0,0,29.361,0Z"
                      fill="#fff"/>
            </g>
        </symbol>
    </defs>
</svg>
